PathFileType   4   (X/Y/Z)																																																																																																																							
DataRate	CameraRate	NumFrames	NumMarkers	Units	OrigDataRate	OrigDataStartFrame	OrigNumFrames																																																																																																																
120	120	7	37	mm	120	16	125																																																																																																																
Frame#	Time	Sternum	R.Acromium	L.Acromium	Top.Head	R.ASIS	L.ASIS	V.Sacral	R.Thigh.Upper	R.Thigh.Front	R.Thigh.Rear	R.Knee.Lat	R.Knee.Med	R.Shank.Upper	R.Shank.Front	R.Shank.Rear	R.Ankle.Lat	R.Ankle.Med	R.Heel	R.Midfoot.Sup	R.Midfoot.Lat	R.Toe.Lat	R.Toe.Med	R.Toe.Tip	L.Thigh.Upper	L.Thigh.Front	L.Thigh.Rear	L.Knee.Lat	L.Knee.Med	L.Shank.Upper	L.Shank.Front	L.Shank.Rear	L.Ankle.Lat	L.Ankle.Med	L.Heel	L.Midfoot.Sup	L.Midfoot.Lat	L.Toe.Lat	L.Toe.Med	L.Toe.Tip																																																																															
 	 	X1	Y1	Z1	X2	Y2	Z2	X3	Y3	Z3	X4	Y4	Z4	X5	Y5	Z5	X6	Y6	Z6	X7	Y7	Z7	X8	Y8	Z8	X9	Y9	Z9	X10	Y10	Z10	X11	Y11	Z11	X12	Y12	Z12	X13	Y13	Z13	X14	Y14	Z14	X15	Y15	Z15	X16	Y16	Z16	X17	Y17	Z17	X18	Y18	Z18	X19	Y19	Z19	X20	Y20	Z20	X21	Y21	Z21	X22	Y22	Z22	X23	Y23	Z23	X24	Y24	Z24	X25	Y25	Z25	X26	Y26	Z26	X27	Y27	Z27	X28	Y28	Z28	X29	Y29	Z29	X30	Y30	Z30	X31	Y31	Z31	X32	Y32	Z32	X33	Y33	Z33	X34	Y34	Z34	X35	Y35	Z35	X36	Y36	Z36	X37	Y37	Z37	X38	Y38	Z38	X39	Y39	Z39	
																																																																																																																							
	16	0.275	1477.977648	-0.001002095	1363.294691	1401.176878	-161.9453511	1427.655398	1403.918859	165.1979949	1427.443642	1500.009417	-10.08809499	1654.641369	1508.526322	-117.7896216	997.5873319	1514.541686	119.399185	990.4590994	1332.047501	-5.611229398	992.3148337	1534.124704	-173.4115572	674.4742116	1610.218994	-67.95180237	620.86368	1549.782485	-162.9734513	541.082082	1525.989795	-142.5943975	439.4968816	1527.827943	-8.355853302	421.0192188	1460.023747	-154.6508593	433.93681	1492.587602	-93.81404015	347.3253084	1406.240495	-165.0122006	353.4010265	1185.361427	-136.9768135	123.3490914	1202.910478	-37.22329306	128.8874425	1114.725273	-79.10633289	151.283581	1235.513426	-41.71858376	58.40807036	1217.351622	-155.3841374	46.6149663	1270.715578	-165.0174344	-35.82398331	1281.830757	-50.15543807	-27.2034842	1330.06432	-83.79364801	-70.09969307	1495.422735	178.8034865	677.8131365	1586.904519	95.03600439	642.343401	1498.851399	161.7547942	557.0279877	1486.740828	144.5366564	410.735229	1487.99423	15.87918741	411.6774072	1474.790013	162.4477689	384.5924608	1518.45397	100.5194763	324.2314182	1450.911435	174.5177999	338.5001976	1435.628281	136.4325857	-12.33483025	1442.684863	34.31683281	13.12945181	1352.529857	76.11439987	-31.23449782	1535.101332	48.15109198	-29.1118567	1515.626315	152.6198727	-29.04406611	1582.548288	163.716336	-53.89757845	1600.600453	55.50675189	-53.98184997	1652.717277	82.30973808	-53.28412288
	17	0.28333	1486.91287	-0.001002095	1363.804197	1410.200957	-161.9453511	1428.270789	1412.942644	165.1979949	1428.05525	1509.346525	-10.08809499	1655.120206	1517.069597	-117.7896216	998.4158731	1523.097708	119.399185	991.2984167	1340.600493	-5.611229398	992.8275687	1547.027466	-173.4115572	677.1566709	1624.103446	-67.95180237	624.9673676	1565.157762	-162.9734513	544.0780523	1543.254173	-142.5943975	442.0688477	1545.434874	-8.355853302	423.6284748	1477.486718	-154.6508593	435.1004346	1511.965923	-93.81404015	349.2334367	1425.505186	-165.0122006	353.3901481	1209.789346	-136.9768135	118.4898883	1227.211079	-37.22329306	124.416585	1137.992948	-79.10633289	143.3684406	1262.543041	-41.71858376	55.60220118	1244.887962	-155.3841374	43.06319561	1301.637814	-165.0174344	-37.08258805	1312.38446	-50.15543807	-28.00680731	1362.362092	-83.79364801	-68.85772711	1501.209749	178.8034865	677.643268	1592.219257	95.03600439	640.9787295	1503.056583	161.7547942	556.8235796	1489.031523	144.5366564	410.7019356	1490.297154	15.87918741	411.6276213	1477.073686	162.4477689	384.7185998	1520.249528	100.5194763	324.007454	1452.824239	174.5177999	338.8203694	1434.712776	136.4325857	-11.8800247	1441.974449	34.31683281	13.52653191	1351.581759	76.11439987	-30.64425069	1534.155776	48.15109198	-28.75284167	1514.68086	152.6198727	-28.66038563	1581.571303	163.716336	-53.59863604	1599.623346	55.50675189	-53.70577091	1651.741012	82.30973808	-53.07405137
	18	0.29167	1495.828999	-0.001002095	1364.204539	1419.205719	-161.9453511	1428.776453	1421.947107	165.1979949	1428.557149	1518.66283	-10.08809499	1655.489454	1525.597652	-117.7896216	999.1426107	1531.638933	119.399185	992.0363296	1349.1392	-5.611229398	993.2275236	1559.712144	-173.4115572	679.7224334	1637.704174	-67.95180237	628.9122625	1580.206515	-162.9734513	546.987332	1560.120731	-142.5943975	444.6046854	1562.629069	-8.355853302	426.2060155	1494.650934	-154.6508593	436.1284988	1531.226886	-93.81404015	351.1334598	1444.690182	-165.0122006	353.1672196	1234.803628	-136.9768135	113.044147	1252.074677	-37.22329306	119.3965789	1161.987727	-79.10633289	134.8421335	1290.071768	-41.71858376	52.31870311	1272.9521	-155.3841374	39.05803197	1332.978122	-165.0174344	-38.66435154	1343.338987	-50.15543807	-29.15053557	1394.968383	-83.79364801	-67.89284784	1506.989306	178.8034865	677.4087419	1597.513025	95.03600439	639.5606879	1507.260669	161.7547942	556.5752438	1491.331587	144.5366564	410.6488874	1492.60918	15.87918741	411.5579923	1479.369796	162.4477689	384.821895	1522.057004	100.5194763	323.7661922	1454.752769	174.5177999	339.1197594	1433.827305	136.4325857	-11.42398472	1441.292648	34.31683281	13.92347432	1350.664423	76.11439987	-30.05402804	1533.240664	48.15109198	-28.39106466	1513.765879	152.6198727	-28.27424088	1580.625065	163.716336	-53.29616786	1598.67696	55.50675189	-53.42589011	1650.795375	82.30973808	-52.85938284
	19	0.3	1504.728579	-0.001002095	1364.491244	1428.192241	-161.9453511	1429.166184	1430.933331	165.1979949	1428.943191	1527.954268	-10.08809499	1655.745176	1534.119121	-117.7896216	999.7567346	1540.173718	119.399185	992.6617958	1357.672072	-5.611229398	993.5107292	1572.184802	-173.4115572	682.1528295	1651.029649	-67.95180237	632.6763681	1594.933551	-162.9734513	549.785459	1576.591829	-142.5943975	447.0760325	1579.412699	-8.355853302	428.7226811	1511.521982	-154.6508593	437.0071599	1550.353323	-93.81404015	353.0185662	1463.793166	-165.0122006	352.7420385	1260.389978	-136.9768135	107.1028744	1277.485336	-37.22329306	113.9139876	1186.694676	-79.10633289	125.8020854	1318.080022	-41.71858376	48.64297006	1301.523055	-155.3841374	34.68606232	1364.710105	-165.0174344	-40.48899279	1374.668904	-50.15543807	-30.55508456	1427.85543	-83.79364801	-67.13041429	1512.766393	178.8034865	677.1013697	1602.790994	95.03600439	638.0809896	1511.46862	161.7547942	556.2745362	1493.64592	144.5366564	410.567335	1494.93521	15.87918741	411.4597728	1481.682975	162.4477689	384.8936095	1523.8808	100.5194763	323.4986573	1456.701437	174.5177999	339.3896983	1432.974738	136.4325857	-10.97559008	1440.642444	34.31683281	14.31138859	1349.781098	76.11439987	-29.4744925	1532.359222	48.15109198	-28.03301343	1512.884593	152.6198727	-27.89256489	1579.713376	163.716336	-52.99558028	1597.765101	55.50675189	-53.14720117	1649.884165	82.30973808	-52.64391912
	20	0.30833	1513.614447	-0.001002095	1364.660515	1437.16215	-161.9453511	1429.434779	1439.902949	165.1979949	1429.208228	1537.218294	-10.08809499	1655.884044	1542.641639	-117.7896216	1000.248671	1548.70944	119.399185	993.1650207	1366.206529	-5.611229398	993.6740634	1584.452173	-173.4115572	684.4313263	1664.089287	-67.95180237	636.2404541	1609.345288	-162.9734513	552.4504216	1592.672206	-142.5943975	449.4569587	1595.790446	-8.355853302	431.1517848	1528.107329	-154.6508593	437.7250806	1569.329454	-93.81404015	354.8837063	1482.812767	-165.0122006	352.1268725	1286.532006	-136.9768135	100.759972	1303.425168	-37.22329306	108.0581633	1212.095313	-79.10633289	116.3439926	1346.549524	-41.71858376	44.66621747	1330.581938	-155.3841374	30.03868665	1396.814033	-165.0174344	-42.46787783	1406.354888	-50.15543807	-32.13190665	1461.003861	-83.79364801	-66.48377849	1518.54599	178.8034865	676.7142184	1608.058462	95.03600439	636.5329266	1515.685826	161.7547942	555.9142707	1495.980368	144.5366564	410.4497317	1497.281092	15.87918741	411.3254221	1484.018414	162.4477689	384.9261784	1525.725647	100.5194763	323.1969041	1458.675051	174.5177999	339.6227882	1432.157069	136.4325857	-10.54229878	1440.026042	34.31683281	14.68277354	1348.934128	76.11439987	-28.91476033	1531.513793	48.15109198	-27.68388427	1512.039339	152.6198727	-27.52097203	1578.839121	163.716336	-52.70105706	1596.890659	55.50675189	-52.87350033	1649.010269	82.30973808	-52.43033744
	21	0.31667	1522.489775	-0.001002095	1364.709586	1446.117651	-161.9453511	1429.578358	1448.858167	165.1979949	1429.348417	1546.453797	-10.08809499	1655.903698	1551.17208	-117.7896216	1000.610528	1557.252735	119.399185	993.5379093	1374.749201	-5.611229398	993.715508	1596.521584	-173.4115572	686.5438183	1676.893249	-67.95180237	639.5882468	1623.44945	-162.9734513	554.9629822	1608.368523	-142.5943975	451.7243718	1611.769014	-8.355853302	433.4695238	1544.415883	-154.6508593	438.2735586	1588.140994	-93.81404015	356.7255878	1501.748344	-165.0122006	351.3360427	1313.211402	-136.9768135	94.10992165	1329.874541	-37.22329306	101.9190399	1238.169166	-79.10633289	106.5614756	1375.461467	-41.71858376	40.48226083	1360.109891	-155.3841374	25.20948819	1429.272099	-165.0174344	-44.50766357	1438.379153	-50.15543807	-33.78750552	1494.396598	-83.79364801	-65.85941206	1524.333327	178.8034865	676.2418959	1613.321113	95.03600439	634.9116066	1519.918297	161.7547942	555.4887783	1498.341854	144.5366564	410.289969	1499.653743	15.87918741	411.1488421	1486.382011	162.4477689	384.9134665	1527.596765	100.5194763	322.8542957	1460.678987	174.5177999	339.813159	1431.375698	136.4325857	-10.12984895	1439.445129	34.31683281	15.03181411	1348.125187	76.11439987	-28.38194199	1530.70607	48.15109198	-27.34749855	1511.231803	152.6198727	-27.16363444	1578.004456	163.716336	-52.41557275	1596.055798	55.50675189	-52.60743703	1648.175854	82.30973808	-52.2203483
	22	0.325	1531.358121	-0.001002095	1364.637144	1455.061494	-161.9453511	1429.594698	1457.801741	165.1979949	1429.361569	1555.6608	-10.08809499	1655.803189	1559.717021	-117.7896216	1000.83656	1565.809979	119.399185	993.7745371	1383.306412	-5.611229398	993.6344232	1608.401095	-173.4115572	688.4788635	1689.452463	-67.95180237	642.7065373	1637.254962	-162.9734513	557.3069126	1623.68907	-142.5943975	453.8583184	1627.356801	-8.355853302	435.6552811	1560.457719	-154.6508593	438.6466585	1606.775258	-93.81404015	358.5427103	1520.599855	-165.0122006	350.3856748	1340.408066	-136.9768135	87.24621569	1356.812229	-37.22329306	95.58563749	1264.894732	-79.10633289	96.54648675	1404.795054	-41.71858376	36.18475741	1390.086312	-155.3841374	20.2919487	1462.0645	-165.0174344	-46.51398506	1470.721759	-50.15543807	-35.42741322	1528.014052	-83.79364801	-65.16214797	1530.134245	178.8034865	675.6808423	1618.585355	95.03600439	633.2141503	1524.17292	161.7547942	554.9941798	1500.738479	144.5366564	410.0836414	1502.061261	15.87918741	410.9256409	1488.780539	162.4477689	384.8510586	1529.500045	100.5194763	322.4658168	1462.719366	174.5177999	339.9567554	1430.631736	136.4325857	-9.741937194	1438.901179	34.31683281	15.35470259	1347.355558	76.11439987	-27.88063259	1529.937373	48.15109198	-27.02623067	1510.463296	152.6198727	-26.82316328	1577.211016	163.716336	-52.14093309	1595.26216	55.50675189	-52.35059751	1647.382573	82.30973808	-52.01490398
